<?xml version="1.0" encoding="utf-8"?>
<!-- Generator: Adobe Illustrator 16.2.0, SVG Export Plug-In . SVG Version: 6.00 Build 0)  -->
<!DOCTYPE svg PUBLIC "-//W3C//DTD SVG 1.1//EN" "http://www.w3.org/Graphics/SVG/1.1/DTD/svg11.dtd">
<svg version="1.1" id="Capa_1" xmlns="http://www.w3.org/2000/svg" xmlns:xlink="http://www.w3.org/1999/xlink" x="0px" y="0px"
	 width="430.117px" height="430.118px" viewBox="0 0 430.117 430.118" enable-background="new 0 0 430.117 430.118"
	 xml:space="preserve">
<g>
	<path id="Vimeo" fill="#222222" d="M367.242,28.754c-59.795-1.951-100.259,31.591-121.446,100.664
		c10.912-4.494,21.516-6.762,31.857-6.762c21.804,0,31.455,12.237,28.879,36.776c-1.277,14.86-10.91,36.482-28.879,64.857
		c-18.038,28.424-31.513,42.61-40.464,42.61c-11.621,0-22.198-21.958-31.856-65.82c-3.239-12.918-9.031-45.812-17.324-98.765
		c-7.775-49.046-28.32-71.962-61.727-68.741C112.15,34.873,90.98,47.815,62.726,72.308C42.113,91.032,21.228,109.761,0,128.471
		l20.225,26.112c19.303-13.562,30.595-20.311,33.731-20.311c14.802,0,28.625,23.219,41.487,69.651
		c11.53,42.644,23.158,85.23,34.744,127.812c17.256,46.467,38.529,69.708,63.553,69.708c40.473,0,90.027-38.065,148.469-114.224
		c56.536-72.908,85.725-130.351,87.693-172.34C432.497,58.764,411.613,30.028,367.242,28.754z"/>
</g>
</svg>
